<svg id="Capa_1" enable-background="new 0 0 512 512" height="512" viewBox="0 0 512 512" width="512" xmlns="http://www.w3.org/2000/svg"><g><path d="m0 256c0-141.274 114.436-255.82 255.668-256 140.293-.178 255.218 113.647 256.324 253.936.644 81.764-37.046 154.751-96.174 202.061-4.25 3.4-10.224 3.664-14.705.575-41.243-28.427-91.234-45.072-145.113-45.072-54.063 0-104.212 16.759-145.535 45.364-4.225 2.924-9.864 2.655-13.882-.547-58.86-46.903-96.583-119.205-96.583-200.317z" fill="#44bfd7"/><path d="m472.756 256c0 119.711-97.045 216.756-216.756 216.756s-216.756-97.045-216.756-216.756 97.045-216.756 216.756-216.756 216.756 97.045 216.756 216.756z" fill="#60c8dd"/><path d="m431 288.182c0 4.142-3.358 7.5-7.5 7.5h-5v5c0 4.142-3.358 7.5-7.5 7.5s-7.5-3.358-7.5-7.5v-5h-5c-4.142 0-7.5-3.358-7.5-7.5s3.358-7.5 7.5-7.5h5v-5c0-4.142 3.358-7.5 7.5-7.5s7.5 3.358 7.5 7.5v5h5c4.142 0 7.5 3.358 7.5 7.5z" fill="#c2eaf2"/><path d="m477.5 200.833c0 4.142-3.358 7.5-7.5 7.5h-5v5c0 4.142-3.358 7.5-7.5 7.5s-7.5-3.358-7.5-7.5v-5h-5c-4.142 0-7.5-3.358-7.5-7.5s3.358-7.5 7.5-7.5h5v-5c0-4.142 3.358-7.5 7.5-7.5s7.5 3.358 7.5 7.5v5h5c4.142 0 7.5 3.358 7.5 7.5z" fill="#fff5f5"/><path d="m371.936 190.833h-111.936c-27.614 0-50-22.386-50-50v-33.167c0-22.091 17.909-40 40-40h71.936c27.614 0 50 22.386 50 50z" fill="#dd7d00"/><path d="m140 120c0-27.614 22.386-50 50-50h10c22.091 0 40 17.909 40 40v30.833c0 27.614-22.386 50-50 50h-50z" fill="#cc7400"/><path d="m126.751 477.024c-10.779-6.317-21.054-13.399-30.751-21.173v-62.518c0-38.66 31.34-70 70-70h14.833s15.978 2.607 6.622 7.243c-23.085 11.442-38.955 35.246-38.955 62.757v71.263c0 11.161-12.12 18.071-21.749 12.428z" fill="#dce6eb"/><path d="m416 393.333v62.518c-43.827 35.134-99.459 56.149-160 56.149-47.457 0-91.897-12.913-130-35.417v-83.249c0-38.66 31.34-70 70-70l21.314 7.341c25.219 8.686 52.453 9.667 78.231 2.818l38.237-10.159h12.218c38.66-.001 70 31.34 70 69.999z" fill="#fff5f5"/><path d="m241.858 386.973-63.64-63.64h155.563l-63.64 63.64c-7.809 7.81-20.473 7.81-28.283 0z" fill="#c8d2dc"/><g fill="#faa68e"><path d="m146 233.333c-13.807 0-25-11.193-25-25v-10c0-13.807 11.193-25 25-25 13.807 0 25 11.193 25 25v10c0 13.807-11.193 25-25 25z"/><path d="m316 323.333-52.929 52.929c-3.905 3.905-10.237 3.905-14.142 0l-52.929-52.929h30v-40c0-16.569 13.431-30 30-30s30 13.431 30 30v40z"/><path d="m391 198.333v10c0 13.807-11.193 25-25 25-2.468 0-4.853-.358-7.105-1.024-15.733 41.513-55.868 71.024-102.895 71.024-60.751 0-110-49.249-110-110v-40c0-60.751 49.249-110 110-110 60.751 0 110 49.249 110 110v20c13.807 0 25 11.193 25 25z"/></g><path d="m366 153.333v40c0 50.792-34.425 93.543-81.216 106.195-9.023 2.44-18.545 2.44-27.568 0-46.791-12.651-81.216-55.403-81.216-106.195v-40c0-55.663 41.345-101.669 95-108.985 53.655 7.316 95 53.322 95 108.985z" fill="#ffbeaa"/><path d="m223.5 160.833c0 8.284-6.716 15-15 15s-15-6.716-15-15 6.716-15 15-15 15 6.716 15 15zm80-15c-8.284 0-15 6.716-15 15s6.716 15 15 15 15-6.716 15-15-6.716-15-15-15z" fill="#453d83"/><path d="m226 153.333c0 4.142-3.358 7.5-7.5 7.5s-7.5-3.358-7.5-7.5 3.358-7.5 7.5-7.5 7.5 3.358 7.5 7.5zm87.5-7.5c-4.142 0-7.5 3.358-7.5 7.5s3.358 7.5 7.5 7.5 7.5-3.358 7.5-7.5-3.358-7.5-7.5-7.5z" fill="#fff5f5"/><path d="m371.936 123.333h-111.936c-27.614 0-50-22.386-50-50 0-22.091 17.909-40 40-40h71.936c27.614 0 50 22.386 50 50z" fill="#dd7d00"/><path d="m140 83.333c0-27.614 22.386-50 50-50h10c22.091 0 40 17.909 40 40 0 27.614-22.386 50-50 50h-50z" fill="#cc7400"/><path d="m349.086 135.412 4.417 6.038c2.175 2.974 1.858 7.09-.747 9.695-2.918 2.918-7.649 2.918-10.567 0-2.605-2.605-2.923-6.721-.747-9.695l4.417-6.038c.798-1.092 2.428-1.092 3.227 0zm-29.552-18.699c-2.863 3.914-2.446 9.332.984 12.761 3.841 3.841 10.068 3.841 13.909 0 3.429-3.429 3.847-8.847.984-12.761l-6.324-8.645c-.799-1.092-2.429-1.092-3.228 0z" fill="#fff5f5"/><path d="m358.692 212.076c0 51.581-40.53 93.396-90.526 93.396h-24.334c-49.996 0-90.526-41.815-90.526-93.396 0-7.359 4.897-13.756 11.836-15.46l58.442-14.356c10.619-2.609 21.498-3.926 32.415-3.926 10.916 0 21.795 1.318 32.415 3.926l58.442 14.356c6.939 1.704 11.836 8.101 11.836 15.46z" fill="#dce6eb"/><path d="m358.692 212.076c0 47.637-34.568 86.943-79.235 92.676-58.157-3.735-104.336-51.48-105.585-110.28l49.713-12.212c10.619-2.609 21.498-3.926 32.415-3.926 10.916 0 21.795 1.318 32.415 3.926l58.442 14.356c6.938 1.704 11.835 8.101 11.835 15.46z" fill="#fff5f5"/><path d="m173.808 246.074-9.036-69.414c-1.958-15.036-15.783-25.677-30.82-23.72s-25.677 15.784-23.72 30.82l7.1 54.54c1.602 12.302 12.913 21.009 25.216 19.407l24.791-3.227c4.107-.536 7.004-4.299 6.469-8.406zm-33.196-3.242c-4.101.534-7.872-2.368-8.405-6.469l-7.1-54.54c-.89-6.835 3.947-13.119 10.782-14.009s13.119 3.947 14.009 10.782l8.068 61.977z" fill="#dce6eb"/><path d="m379.92 152.939c-15.037-1.957-28.863 8.684-30.82 23.72l-9.036 69.414c-.535 4.108 2.362 7.871 6.469 8.405l24.791 3.227c12.303 1.602 23.615-7.105 25.216-19.407l7.1-54.54c1.957-15.035-8.684-28.861-23.72-30.819zm8.845 28.884-7.1 54.54c-.534 4.101-4.304 7.003-8.406 6.469l-17.354-2.259 8.068-61.977c.89-6.835 7.174-11.672 14.009-10.782 6.836.889 11.673 7.174 10.783 14.009z" fill="#fff5f5"/><path d="m391 208.333c0 7.282-3.114 13.836-8.082 18.405l-.052-.147c-4.732-13.375-2.775-28.208 5.265-39.897 1.832 3.476 2.869 7.437 2.869 11.639z" fill="#faa68e"/><path d="m145.998 233.333c-13.806-.001-24.998-11.194-24.998-25v-10c0-13.806 11.192-24.999 24.998-25-6.071 4.561-9.998 11.822-9.998 20v20c0 8.179 3.927 15.439 9.998 20z" fill="#faa68e"/><path d="m355.75 427.5v64.338c-4.923 2.085-9.925 4.02-15 5.8v-70.138c0-4.142 3.358-7.5 7.5-7.5s7.5 3.358 7.5 7.5zm-192-7.5c-4.142 0-7.5 3.358-7.5 7.5v64.338c4.923 2.085 9.925 4.02 15 5.8v-70.138c0-4.142-3.358-7.5-7.5-7.5z" fill="#dce6eb"/><path d="m213.114 216.996c1.223-2.835 3.987-4.531 6.89-4.531.992 0 2 .198 2.968.615 17.903 7.725 48.154 7.725 66.058 0 3.802-1.64 8.216.111 9.857 3.916 1.641 3.803-.112 8.216-3.915 9.857-21.854 9.428-56.089 9.428-77.942 0-3.804-1.642-5.557-6.055-3.916-9.857zm92.199 30c-1.642-3.805-6.056-5.554-9.857-3.916-21.387 9.229-57.523 9.229-78.91 0-.968-.417-1.976-.615-2.968-.615-2.903 0-5.667 1.696-6.89 4.531-1.641 3.803.112 8.216 3.915 9.857 25.457 10.982 65.338 10.982 90.795 0 3.803-1.642 5.556-6.055 3.915-9.857z" fill="#dce6eb"/></g></svg>