<?xml version="1.0" ?><!DOCTYPE svg  PUBLIC '-//W3C//DTD SVG 1.1//EN'  'http://www.w3.org/Graphics/SVG/1.1/DTD/svg11.dtd'><svg enable-background="new 0 0 64 64" height="64px" id="Layer_1" version="1.1" viewBox="0 0 64 64" width="64px" xml:space="preserve" xmlns="http://www.w3.org/2000/svg" xmlns:xlink="http://www.w3.org/1999/xlink"><g><g><path d="M47.728,17.082c-3.484-5.548-7.813-10.518-12.538-15.018c-0.521-0.455-0.998-0.974-1.545-1.397    c1.465,3.769,1.997,7.936,1.377,11.94c-0.469,3.095-1.69,6.051-3.517,8.578c-1.764,2.445-4.023,4.475-6.414,6.286    c-0.121-0.016-0.171-0.129-0.233-0.211c-1.104-1.34-1.932-2.908-2.423-4.573c-0.484-1.632-0.645-3.338-0.612-5.036    c-0.04,0.025-0.105,0.081-0.136,0.106c-1.868,2.014-3.574,4.166-5.16,6.408c-1.858,2.648-3.532,5.434-4.899,8.375    c-1.577,3.419-2.77,7.083-3.06,10.859c-0.281,3.567,0.306,7.261,2.084,10.38c1.538,2.729,3.929,4.897,6.647,6.375    c2.938,1.601,6.214,2.485,9.513,2.899c2.915,0.374,5.853,0.333,8.772,0.115c2.446-0.204,4.901-0.577,7.244-1.333    c1.882-0.609,3.692-1.494,5.278-2.704c1.44-1.105,2.688-2.469,3.686-3.996c1.158-1.771,2.004-3.728,2.648-5.742    c0.459-1.39,0.707-2.844,0.878-4.297c0.369-3.477,0.16-7.001-0.475-10.437C53.692,28.388,51.102,22.45,47.728,17.082z" fill="#DD451F"/></g><g><path d="M43.477,34.012c-1.614-3.911-3.829-7.548-6.344-10.928c-0.283-0.345-0.529-0.729-0.832-1.057    c0.522,2.558,0.405,5.268-0.426,7.749c-0.636,1.92-1.737,3.668-3.175,5.078c-1.389,1.363-3.049,2.41-4.768,3.301    c-0.075-0.023-0.094-0.102-0.125-0.16c-0.558-0.974-0.914-2.062-1.044-3.176c-0.13-1.092-0.046-2.195,0.159-3.272    c-0.027,0.011-0.075,0.04-0.098,0.052c-1.408,1.078-2.729,2.263-3.983,3.516c-1.473,1.484-2.84,3.073-4.031,4.796    c-1.379,2.004-2.536,4.206-3.133,6.579c-0.568,2.24-0.599,4.655,0.195,6.835c0.681,1.905,1.964,3.546,3.535,4.783    c1.695,1.34,3.684,2.26,5.737,2.884c1.815,0.557,3.689,0.85,5.571,1.03c1.58,0.137,3.185,0.167,4.756-0.058    c1.267-0.183,2.515-0.547,3.657-1.146c1.038-0.545,1.979-1.278,2.782-2.142c0.93-1,1.683-2.154,2.312-3.366    c0.441-0.834,0.761-1.733,1.026-2.639c0.614-2.173,0.866-4.44,0.838-6.695C46.039,41.858,45.037,37.796,43.477,34.012z" fill="#ED7A1B"/></g><g><path d="M25.416,47.328c0.791-1.917,1.878-3.701,3.109-5.358c0.14-0.169,0.26-0.356,0.409-0.518    c-0.257,1.253-0.199,2.583,0.208,3.799c0.312,0.941,0.852,1.798,1.557,2.49c0.68,0.667,1.494,1.18,2.337,1.617    c0.037-0.01,0.046-0.05,0.062-0.077c0.273-0.479,0.447-1.012,0.511-1.557c0.065-0.535,0.022-1.077-0.078-1.604    c0.015,0.006,0.038,0.02,0.05,0.026c0.69,0.528,1.336,1.109,1.952,1.723c0.721,0.728,1.393,1.507,1.976,2.352    c0.677,0.983,1.243,2.062,1.535,3.225c0.279,1.098,0.293,2.282-0.093,3.351c-0.335,0.934-0.964,1.738-1.735,2.345    c-0.832,0.657-1.805,1.108-2.812,1.414c-0.89,0.272-1.81,0.416-2.731,0.505c-0.774,0.067-1.561,0.082-2.331-0.029    c-0.621-0.09-1.233-0.269-1.792-0.562c-0.511-0.267-0.972-0.625-1.365-1.05c-0.455-0.49-0.824-1.056-1.132-1.649    c-0.217-0.41-0.373-0.85-0.504-1.294c-0.302-1.065-0.426-2.176-0.411-3.283C24.161,51.174,24.65,49.183,25.416,47.328z" fill="#FFC200"/></g></g></svg>